<svg viewBox="0 0 280 80" xmlns="http://www.w3.org/2000/svg" role="img" aria-label="BurnoutIQ by Pivot Training">
  <defs>
    <linearGradient id="ember" x1="50%" y1="100%" x2="50%" y2="0%">
      <stop offset="0%" stop-color="#B45309"></stop>
      <stop offset="55%" stop-color="#D97706"></stop>
      <stop offset="100%" stop-color="#F59E0B"></stop>
    </linearGradient>
    <radialGradient id="innerGlow" cx="50%" cy="65%" r="40%">
      <stop offset="0%" stop-color="#FEF3C7" stop-opacity="0.5"></stop>
      <stop offset="100%" stop-color="#FEF3C7" stop-opacity="0"></stop>
    </radialGradient>
  </defs>
  
  <g transform="translate(8, 12)">
    <rect width="56" height="56" rx="14" fill="#0B1220"></rect>
    <path d="M28 9 C 32.4 16 39.4 20.5 39.4 30 C 39.4 38.5 34.1 44.5 28 46.5 C 21.9 44.5 16.6 38.5 16.6 30 C 16.6 23 20.1 19 23.6 19 C 21.9 24 23.6 28.5 28 27 C 23.6 21 23.6 15 28 9 Z" fill="url(#ember)"></path>
    <ellipse cx="28" cy="35" rx="7" ry="5" fill="url(#innerGlow)"></ellipse>
  </g>
  
  <g transform="translate(82, 0)">
    <text x="0" y="42" font-family="&#39;Space Grotesk&#39;, &#39;Inter&#39;, sans-serif" font-weight="700" font-size="28" fill="#0B1220" letter-spacing="-0.5">BurnoutIQ</text>
    <text x="1" y="62" font-family="&#39;Inter&#39;, sans-serif" font-weight="400" font-size="11" fill="#8A93A2" letter-spacing="1.5">RECOVERY INTELLIGENCE</text>
  </g>
</svg>